<svg xmlns="http://www.w3.org/2000/svg" width="1200" height="620" viewBox="0 0 1200 620">
<rect width="100%" height="100%" fill="#f8fafc" />
<text x="600.0" y="36.0" font-size="24" font-family="Helvetica, Arial, sans-serif" font-weight="bold" text-anchor="middle" fill="#1f2937">Week 3 Regression Diagnostics</text>
<text x="600.0" y="58.0" font-size="14" font-family="Helvetica, Arial, sans-serif" font-weight="normal" text-anchor="middle" fill="#1f2937">Holdout-period predicted vs observed weekly averages</text>
<rect x="40.0" y="80.0" width="550.0" height="500.0" fill="#ffffff" stroke="#d1d5db" stroke-width="1" rx="10" ry="10" />
<text x="58.0" y="104.0" font-size="16" font-family="Helvetica, Arial, sans-serif" font-weight="bold" text-anchor="start" fill="#1f2937">Model vs observed (matched subset)</text>
<text x="58.0" y="124.0" font-size="12" font-family="Helvetica, Arial, sans-serif" font-weight="normal" text-anchor="start" fill="#1f2937">R²=0.236  RMSE=3.980  MAE=3.155</text>
<line x1="98.0" y1="118.0" x2="98.0" y2="536.0" stroke="#e5e7eb" stroke-width="1.0" />
<line x1="98.0" y1="536.0" x2="572.0" y2="536.0" stroke="#e5e7eb" stroke-width="1.0" />
<text x="98.0" y="556.0" font-size="11" font-family="Helvetica, Arial, sans-serif" font-weight="normal" text-anchor="middle" fill="#1f2937">0.2</text>
<text x="90.0" y="540.0" font-size="11" font-family="Helvetica, Arial, sans-serif" font-weight="normal" text-anchor="end" fill="#1f2937">0.2</text>
<line x1="216.5" y1="118.0" x2="216.5" y2="536.0" stroke="#e5e7eb" stroke-width="1.0" />
<line x1="98.0" y1="431.5" x2="572.0" y2="431.5" stroke="#e5e7eb" stroke-width="1.0" />
<text x="216.5" y="556.0" font-size="11" font-family="Helvetica, Arial, sans-serif" font-weight="normal" text-anchor="middle" fill="#1f2937">8.6</text>
<text x="90.0" y="435.5" font-size="11" font-family="Helvetica, Arial, sans-serif" font-weight="normal" text-anchor="end" fill="#1f2937">8.6</text>
<line x1="335.0" y1="118.0" x2="335.0" y2="536.0" stroke="#e5e7eb" stroke-width="1.0" />
<line x1="98.0" y1="327.0" x2="572.0" y2="327.0" stroke="#e5e7eb" stroke-width="1.0" />
<text x="335.0" y="556.0" font-size="11" font-family="Helvetica, Arial, sans-serif" font-weight="normal" text-anchor="middle" fill="#1f2937">17.0</text>
<text x="90.0" y="331.0" font-size="11" font-family="Helvetica, Arial, sans-serif" font-weight="normal" text-anchor="end" fill="#1f2937">17.0</text>
<line x1="453.5" y1="118.0" x2="453.5" y2="536.0" stroke="#e5e7eb" stroke-width="1.0" />
<line x1="98.0" y1="222.5" x2="572.0" y2="222.5" stroke="#e5e7eb" stroke-width="1.0" />
<text x="453.5" y="556.0" font-size="11" font-family="Helvetica, Arial, sans-serif" font-weight="normal" text-anchor="middle" fill="#1f2937">25.4</text>
<text x="90.0" y="226.5" font-size="11" font-family="Helvetica, Arial, sans-serif" font-weight="normal" text-anchor="end" fill="#1f2937">25.4</text>
<line x1="572.0" y1="118.0" x2="572.0" y2="536.0" stroke="#e5e7eb" stroke-width="1.0" />
<line x1="98.0" y1="118.0" x2="572.0" y2="118.0" stroke="#e5e7eb" stroke-width="1.0" />
<text x="572.0" y="556.0" font-size="11" font-family="Helvetica, Arial, sans-serif" font-weight="normal" text-anchor="middle" fill="#1f2937">33.7</text>
<text x="90.0" y="122.0" font-size="11" font-family="Helvetica, Arial, sans-serif" font-weight="normal" text-anchor="end" fill="#1f2937">33.7</text>
<line x1="98.0" y1="536.0" x2="572.0" y2="118.0" stroke="#374151" stroke-width="1.5" stroke-dasharray="5 4" />
<line x1="98.0" y1="445.4" x2="572.0" y2="325.3" stroke="#b91c1c" stroke-width="2.0" />
<circle cx="199.2" cy="426.7" r="3.2" fill="#0f766e" fill-opacity="0.420" />
<circle cx="196.3" cy="416.0" r="3.2" fill="#0f766e" fill-opacity="0.420" />
<circle cx="215.3" cy="423.4" r="3.2" fill="#0f766e" fill-opacity="0.420" />
<circle cx="157.9" cy="446.7" r="3.2" fill="#0f766e" fill-opacity="0.420" />
<circle cx="167.6" cy="452.0" r="3.2" fill="#0f766e" fill-opacity="0.420" />
<circle cx="166.1" cy="452.2" r="3.2" fill="#0f766e" fill-opacity="0.420" />
<circle cx="232.3" cy="434.8" r="3.2" fill="#0f766e" fill-opacity="0.420" />
<circle cx="233.9" cy="442.4" r="3.2" fill="#0f766e" fill-opacity="0.420" />
<circle cx="209.2" cy="438.1" r="3.2" fill="#0f766e" fill-opacity="0.420" />
<circle cx="222.8" cy="421.7" r="3.2" fill="#0f766e" fill-opacity="0.420" />
<circle cx="218.5" cy="416.2" r="3.2" fill="#0f766e" fill-opacity="0.420" />
<circle cx="213.1" cy="427.5" r="3.2" fill="#0f766e" fill-opacity="0.420" />
<circle cx="217.0" cy="430.9" r="3.2" fill="#0f766e" fill-opacity="0.420" />
<circle cx="199.9" cy="418.2" r="3.2" fill="#0f766e" fill-opacity="0.420" />
<circle cx="205.4" cy="430.6" r="3.2" fill="#0f766e" fill-opacity="0.420" />
<circle cx="189.3" cy="442.5" r="3.2" fill="#0f766e" fill-opacity="0.420" />
<circle cx="187.9" cy="433.6" r="3.2" fill="#0f766e" fill-opacity="0.420" />
<circle cx="197.6" cy="435.6" r="3.2" fill="#0f766e" fill-opacity="0.420" />
<circle cx="210.6" cy="435.5" r="3.2" fill="#0f766e" fill-opacity="0.420" />
<circle cx="221.4" cy="439.4" r="3.2" fill="#0f766e" fill-opacity="0.420" />
<circle cx="221.4" cy="442.1" r="3.2" fill="#0f766e" fill-opacity="0.420" />
<circle cx="224.7" cy="443.5" r="3.2" fill="#0f766e" fill-opacity="0.420" />
<circle cx="268.0" cy="438.8" r="3.2" fill="#0f766e" fill-opacity="0.420" />
<circle cx="268.0" cy="427.0" r="3.2" fill="#0f766e" fill-opacity="0.420" />
<circle cx="313.4" cy="430.6" r="3.2" fill="#0f766e" fill-opacity="0.420" />
<circle cx="313.4" cy="426.3" r="3.2" fill="#0f766e" fill-opacity="0.420" />
<circle cx="256.3" cy="429.7" r="3.2" fill="#0f766e" fill-opacity="0.420" />
<circle cx="221.2" cy="433.8" r="3.2" fill="#0f766e" fill-opacity="0.420" />
<circle cx="216.6" cy="428.5" r="3.2" fill="#0f766e" fill-opacity="0.420" />
<circle cx="202.4" cy="403.8" r="3.2" fill="#0f766e" fill-opacity="0.420" />
<circle cx="198.7" cy="390.7" r="3.2" fill="#0f766e" fill-opacity="0.420" />
<circle cx="187.1" cy="366.9" r="3.2" fill="#0f766e" fill-opacity="0.420" />
<circle cx="196.0" cy="359.7" r="3.2" fill="#0f766e" fill-opacity="0.420" />
<circle cx="190.6" cy="391.1" r="3.2" fill="#0f766e" fill-opacity="0.420" />
<circle cx="192.5" cy="383.7" r="3.2" fill="#0f766e" fill-opacity="0.420" />
<circle cx="189.3" cy="391.2" r="3.2" fill="#0f766e" fill-opacity="0.420" />
<circle cx="189.3" cy="391.6" r="3.2" fill="#0f766e" fill-opacity="0.420" />
<circle cx="189.1" cy="385.9" r="3.2" fill="#0f766e" fill-opacity="0.420" />
<circle cx="229.8" cy="400.1" r="3.2" fill="#0f766e" fill-opacity="0.420" />
<circle cx="229.8" cy="411.1" r="3.2" fill="#0f766e" fill-opacity="0.420" />
<circle cx="244.5" cy="405.1" r="3.2" fill="#0f766e" fill-opacity="0.420" />
<circle cx="239.9" cy="405.9" r="3.2" fill="#0f766e" fill-opacity="0.420" />
<circle cx="233.8" cy="422.5" r="3.2" fill="#0f766e" fill-opacity="0.420" />
<circle cx="257.3" cy="423.7" r="3.2" fill="#0f766e" fill-opacity="0.420" />
<circle cx="249.3" cy="426.2" r="3.2" fill="#0f766e" fill-opacity="0.420" />
<circle cx="248.0" cy="422.6" r="3.2" fill="#0f766e" fill-opacity="0.420" />
<circle cx="249.4" cy="431.2" r="3.2" fill="#0f766e" fill-opacity="0.420" />
<circle cx="245.1" cy="425.9" r="3.2" fill="#0f766e" fill-opacity="0.420" />
<circle cx="220.4" cy="430.5" r="3.2" fill="#0f766e" fill-opacity="0.420" />
<circle cx="251.1" cy="429.1" r="3.2" fill="#0f766e" fill-opacity="0.420" />
<circle cx="249.2" cy="432.3" r="3.2" fill="#0f766e" fill-opacity="0.420" />
<circle cx="263.0" cy="444.7" r="3.2" fill="#0f766e" fill-opacity="0.420" />
<circle cx="222.4" cy="454.6" r="3.2" fill="#0f766e" fill-opacity="0.420" />
<circle cx="226.9" cy="454.2" r="3.2" fill="#0f766e" fill-opacity="0.420" />
<circle cx="232.0" cy="448.7" r="3.2" fill="#0f766e" fill-opacity="0.420" />
<circle cx="221.2" cy="418.3" r="3.2" fill="#0f766e" fill-opacity="0.420" />
<circle cx="218.9" cy="405.0" r="3.2" fill="#0f766e" fill-opacity="0.420" />
<circle cx="230.9" cy="407.6" r="3.2" fill="#0f766e" fill-opacity="0.420" />
<circle cx="223.7" cy="407.2" r="3.2" fill="#0f766e" fill-opacity="0.420" />
<circle cx="224.5" cy="404.3" r="3.2" fill="#0f766e" fill-opacity="0.420" />
<circle cx="218.9" cy="403.7" r="3.2" fill="#0f766e" fill-opacity="0.420" />
<circle cx="224.6" cy="385.7" r="3.2" fill="#0f766e" fill-opacity="0.420" />
<circle cx="205.3" cy="406.4" r="3.2" fill="#0f766e" fill-opacity="0.420" />
<circle cx="201.9" cy="411.1" r="3.2" fill="#0f766e" fill-opacity="0.420" />
<circle cx="178.7" cy="401.7" r="3.2" fill="#0f766e" fill-opacity="0.420" />
<circle cx="175.0" cy="393.7" r="3.2" fill="#0f766e" fill-opacity="0.420" />
<circle cx="169.1" cy="387.8" r="3.2" fill="#0f766e" fill-opacity="0.420" />
<circle cx="175.9" cy="376.1" r="3.2" fill="#0f766e" fill-opacity="0.420" />
<circle cx="189.0" cy="395.1" r="3.2" fill="#0f766e" fill-opacity="0.420" />
<circle cx="214.0" cy="418.6" r="3.2" fill="#0f766e" fill-opacity="0.420" />
<circle cx="217.9" cy="431.8" r="3.2" fill="#0f766e" fill-opacity="0.420" />
<circle cx="221.6" cy="433.3" r="3.2" fill="#0f766e" fill-opacity="0.420" />
<circle cx="219.9" cy="436.3" r="3.2" fill="#0f766e" fill-opacity="0.420" />
<circle cx="224.5" cy="443.7" r="3.2" fill="#0f766e" fill-opacity="0.420" />
<circle cx="222.6" cy="450.2" r="3.2" fill="#0f766e" fill-opacity="0.420" />
<circle cx="196.6" cy="437.1" r="3.2" fill="#0f766e" fill-opacity="0.420" />
<circle cx="302.8" cy="400.6" r="3.2" fill="#0f766e" fill-opacity="0.420" />
<circle cx="302.5" cy="415.9" r="3.2" fill="#0f766e" fill-opacity="0.420" />
<circle cx="301.7" cy="422.6" r="3.2" fill="#0f766e" fill-opacity="0.420" />
<circle cx="323.6" cy="415.1" r="3.2" fill="#0f766e" fill-opacity="0.420" />
<circle cx="352.7" cy="413.9" r="3.2" fill="#0f766e" fill-opacity="0.420" />
<circle cx="394.6" cy="406.6" r="3.2" fill="#0f766e" fill-opacity="0.420" />
<circle cx="414.1" cy="407.0" r="3.2" fill="#0f766e" fill-opacity="0.420" />
<circle cx="175.6" cy="410.4" r="3.2" fill="#0f766e" fill-opacity="0.420" />
<circle cx="175.6" cy="393.3" r="3.2" fill="#0f766e" fill-opacity="0.420" />
<circle cx="175.6" cy="387.0" r="3.2" fill="#0f766e" fill-opacity="0.420" />
<circle cx="180.2" cy="386.1" r="3.2" fill="#0f766e" fill-opacity="0.420" />
<circle cx="187.2" cy="392.2" r="3.2" fill="#0f766e" fill-opacity="0.420" />
<circle cx="217.7" cy="364.0" r="3.2" fill="#0f766e" fill-opacity="0.420" />
<circle cx="203.4" cy="394.9" r="3.2" fill="#0f766e" fill-opacity="0.420" />
<circle cx="203.4" cy="383.8" r="3.2" fill="#0f766e" fill-opacity="0.420" />
<circle cx="203.4" cy="380.5" r="3.2" fill="#0f766e" fill-opacity="0.420" />
<circle cx="179.1" cy="434.1" r="3.2" fill="#0f766e" fill-opacity="0.420" />
<circle cx="177.6" cy="420.5" r="3.2" fill="#0f766e" fill-opacity="0.420" />
<circle cx="172.2" cy="429.5" r="3.2" fill="#0f766e" fill-opacity="0.420" />
<circle cx="173.5" cy="428.4" r="3.2" fill="#0f766e" fill-opacity="0.420" />
<circle cx="152.2" cy="427.6" r="3.2" fill="#0f766e" fill-opacity="0.420" />
<circle cx="155.5" cy="424.8" r="3.2" fill="#0f766e" fill-opacity="0.420" />
<circle cx="185.0" cy="443.1" r="3.2" fill="#0f766e" fill-opacity="0.420" />
<circle cx="193.6" cy="454.9" r="3.2" fill="#0f766e" fill-opacity="0.420" />
<circle cx="196.6" cy="457.6" r="3.2" fill="#0f766e" fill-opacity="0.420" />
<circle cx="173.7" cy="455.6" r="3.2" fill="#0f766e" fill-opacity="0.420" />
<circle cx="177.8" cy="446.4" r="3.2" fill="#0f766e" fill-opacity="0.420" />
<circle cx="181.0" cy="447.5" r="3.2" fill="#0f766e" fill-opacity="0.420" />
<circle cx="182.4" cy="440.4" r="3.2" fill="#0f766e" fill-opacity="0.420" />
<circle cx="199.6" cy="440.0" r="3.2" fill="#0f766e" fill-opacity="0.420" />
<circle cx="180.3" cy="430.0" r="3.2" fill="#0f766e" fill-opacity="0.420" />
<circle cx="186.8" cy="438.6" r="3.2" fill="#0f766e" fill-opacity="0.420" />
<circle cx="203.8" cy="434.5" r="3.2" fill="#0f766e" fill-opacity="0.420" />
<circle cx="174.2" cy="447.3" r="3.2" fill="#0f766e" fill-opacity="0.420" />
<circle cx="168.2" cy="450.2" r="3.2" fill="#0f766e" fill-opacity="0.420" />
<circle cx="170.7" cy="447.9" r="3.2" fill="#0f766e" fill-opacity="0.420" />
<circle cx="220.4" cy="447.9" r="3.2" fill="#0f766e" fill-opacity="0.420" />
<circle cx="238.2" cy="450.6" r="3.2" fill="#0f766e" fill-opacity="0.420" />
<circle cx="234.9" cy="437.7" r="3.2" fill="#0f766e" fill-opacity="0.420" />
<circle cx="240.7" cy="440.2" r="3.2" fill="#0f766e" fill-opacity="0.420" />
<circle cx="240.4" cy="433.2" r="3.2" fill="#0f766e" fill-opacity="0.420" />
<circle cx="223.0" cy="428.8" r="3.2" fill="#0f766e" fill-opacity="0.420" />
<circle cx="231.3" cy="374.7" r="3.2" fill="#0f766e" fill-opacity="0.420" />
<circle cx="265.2" cy="412.3" r="3.2" fill="#0f766e" fill-opacity="0.420" />
<circle cx="296.2" cy="410.5" r="3.2" fill="#0f766e" fill-opacity="0.420" />
<circle cx="228.5" cy="438.4" r="3.2" fill="#0f766e" fill-opacity="0.420" />
<circle cx="224.3" cy="419.6" r="3.2" fill="#0f766e" fill-opacity="0.420" />
<circle cx="223.1" cy="414.1" r="3.2" fill="#0f766e" fill-opacity="0.420" />
<circle cx="197.4" cy="411.5" r="3.2" fill="#0f766e" fill-opacity="0.420" />
<circle cx="283.5" cy="425.3" r="3.2" fill="#0f766e" fill-opacity="0.420" />
<circle cx="269.6" cy="403.8" r="3.2" fill="#0f766e" fill-opacity="0.420" />
<circle cx="369.8" cy="399.3" r="3.2" fill="#0f766e" fill-opacity="0.420" />
<circle cx="298.9" cy="411.2" r="3.2" fill="#0f766e" fill-opacity="0.420" />
<circle cx="298.9" cy="405.7" r="3.2" fill="#0f766e" fill-opacity="0.420" />
<circle cx="323.2" cy="427.8" r="3.2" fill="#0f766e" fill-opacity="0.420" />
<circle cx="320.9" cy="390.4" r="3.2" fill="#0f766e" fill-opacity="0.420" />
<circle cx="320.9" cy="386.7" r="3.2" fill="#0f766e" fill-opacity="0.420" />
<circle cx="279.8" cy="419.9" r="3.2" fill="#0f766e" fill-opacity="0.420" />
<circle cx="325.3" cy="398.7" r="3.2" fill="#0f766e" fill-opacity="0.420" />
<circle cx="311.0" cy="407.2" r="3.2" fill="#0f766e" fill-opacity="0.420" />
<circle cx="314.5" cy="360.9" r="3.2" fill="#0f766e" fill-opacity="0.420" />
<circle cx="305.8" cy="358.7" r="3.2" fill="#0f766e" fill-opacity="0.420" />
<circle cx="273.4" cy="378.9" r="3.2" fill="#0f766e" fill-opacity="0.420" />
<circle cx="280.4" cy="378.7" r="3.2" fill="#0f766e" fill-opacity="0.420" />
<circle cx="267.0" cy="392.9" r="3.2" fill="#0f766e" fill-opacity="0.420" />
<circle cx="238.5" cy="386.7" r="3.2" fill="#0f766e" fill-opacity="0.420" />
<circle cx="234.9" cy="364.0" r="3.2" fill="#0f766e" fill-opacity="0.420" />
<circle cx="340.0" cy="354.8" r="3.2" fill="#0f766e" fill-opacity="0.420" />
<circle cx="359.0" cy="358.5" r="3.2" fill="#0f766e" fill-opacity="0.420" />
<circle cx="391.0" cy="380.5" r="3.2" fill="#0f766e" fill-opacity="0.420" />
<circle cx="379.3" cy="383.4" r="3.2" fill="#0f766e" fill-opacity="0.420" />
<circle cx="340.7" cy="361.7" r="3.2" fill="#0f766e" fill-opacity="0.420" />
<circle cx="333.0" cy="357.0" r="3.2" fill="#0f766e" fill-opacity="0.420" />
<circle cx="304.0" cy="373.9" r="3.2" fill="#0f766e" fill-opacity="0.420" />
<circle cx="306.0" cy="387.0" r="3.2" fill="#0f766e" fill-opacity="0.420" />
<circle cx="343.4" cy="385.5" r="3.2" fill="#0f766e" fill-opacity="0.420" />
<circle cx="343.4" cy="410.0" r="3.2" fill="#0f766e" fill-opacity="0.420" />
<circle cx="308.6" cy="376.2" r="3.2" fill="#0f766e" fill-opacity="0.420" />
<circle cx="301.8" cy="371.0" r="3.2" fill="#0f766e" fill-opacity="0.420" />
<circle cx="249.2" cy="358.5" r="3.2" fill="#0f766e" fill-opacity="0.420" />
<circle cx="254.7" cy="361.2" r="3.2" fill="#0f766e" fill-opacity="0.420" />
<circle cx="276.9" cy="337.0" r="3.2" fill="#0f766e" fill-opacity="0.420" />
<circle cx="290.3" cy="320.4" r="3.2" fill="#0f766e" fill-opacity="0.420" />
<circle cx="288.1" cy="292.4" r="3.2" fill="#0f766e" fill-opacity="0.420" />
<circle cx="298.7" cy="321.4" r="3.2" fill="#0f766e" fill-opacity="0.420" />
<circle cx="433.2" cy="326.6" r="3.2" fill="#0f766e" fill-opacity="0.420" />
<circle cx="453.6" cy="325.8" r="3.2" fill="#0f766e" fill-opacity="0.420" />
<circle cx="470.8" cy="324.6" r="3.2" fill="#0f766e" fill-opacity="0.420" />
<circle cx="470.8" cy="322.2" r="3.2" fill="#0f766e" fill-opacity="0.420" />
<circle cx="212.0" cy="334.0" r="3.2" fill="#0f766e" fill-opacity="0.420" />
<circle cx="211.0" cy="378.4" r="3.2" fill="#0f766e" fill-opacity="0.420" />
<text x="315.0" y="570.0" font-size="12" font-family="Helvetica, Arial, sans-serif" font-weight="normal" text-anchor="middle" fill="#1f2937">Observed weekly mean chlorophyll (mg m^-3)</text>
<text x="56.0" y="330.0" font-size="12" font-family="Helvetica, Arial, sans-serif" fill="#1f2937" text-anchor="middle" transform="rotate(-90 56.0 330.0)">Predicted weekly mean chlorophyll (mg m^-3)</text>
<rect x="610.0" y="80.0" width="550.0" height="500.0" fill="#ffffff" stroke="#d1d5db" stroke-width="1" rx="10" ry="10" />
<text x="628.0" y="104.0" font-size="16" font-family="Helvetica, Arial, sans-serif" font-weight="bold" text-anchor="start" fill="#1f2937">Persistence (last observed value) vs observed</text>
<text x="628.0" y="124.0" font-size="12" font-family="Helvetica, Arial, sans-serif" font-weight="normal" text-anchor="start" fill="#1f2937">R²=-1.136  RMSE=6.655  MAE=4.650</text>
<line x1="668.0" y1="118.0" x2="668.0" y2="536.0" stroke="#e5e7eb" stroke-width="1.0" />
<line x1="668.0" y1="536.0" x2="1142.0" y2="536.0" stroke="#e5e7eb" stroke-width="1.0" />
<text x="668.0" y="556.0" font-size="11" font-family="Helvetica, Arial, sans-serif" font-weight="normal" text-anchor="middle" fill="#1f2937">0.2</text>
<text x="660.0" y="540.0" font-size="11" font-family="Helvetica, Arial, sans-serif" font-weight="normal" text-anchor="end" fill="#1f2937">0.2</text>
<line x1="786.5" y1="118.0" x2="786.5" y2="536.0" stroke="#e5e7eb" stroke-width="1.0" />
<line x1="668.0" y1="431.5" x2="1142.0" y2="431.5" stroke="#e5e7eb" stroke-width="1.0" />
<text x="786.5" y="556.0" font-size="11" font-family="Helvetica, Arial, sans-serif" font-weight="normal" text-anchor="middle" fill="#1f2937">8.6</text>
<text x="660.0" y="435.5" font-size="11" font-family="Helvetica, Arial, sans-serif" font-weight="normal" text-anchor="end" fill="#1f2937">8.6</text>
<line x1="905.0" y1="118.0" x2="905.0" y2="536.0" stroke="#e5e7eb" stroke-width="1.0" />
<line x1="668.0" y1="327.0" x2="1142.0" y2="327.0" stroke="#e5e7eb" stroke-width="1.0" />
<text x="905.0" y="556.0" font-size="11" font-family="Helvetica, Arial, sans-serif" font-weight="normal" text-anchor="middle" fill="#1f2937">17.0</text>
<text x="660.0" y="331.0" font-size="11" font-family="Helvetica, Arial, sans-serif" font-weight="normal" text-anchor="end" fill="#1f2937">17.0</text>
<line x1="1023.5" y1="118.0" x2="1023.5" y2="536.0" stroke="#e5e7eb" stroke-width="1.0" />
<line x1="668.0" y1="222.5" x2="1142.0" y2="222.5" stroke="#e5e7eb" stroke-width="1.0" />
<text x="1023.5" y="556.0" font-size="11" font-family="Helvetica, Arial, sans-serif" font-weight="normal" text-anchor="middle" fill="#1f2937">25.4</text>
<text x="660.0" y="226.5" font-size="11" font-family="Helvetica, Arial, sans-serif" font-weight="normal" text-anchor="end" fill="#1f2937">25.4</text>
<line x1="1142.0" y1="118.0" x2="1142.0" y2="536.0" stroke="#e5e7eb" stroke-width="1.0" />
<line x1="668.0" y1="118.0" x2="1142.0" y2="118.0" stroke="#e5e7eb" stroke-width="1.0" />
<text x="1142.0" y="556.0" font-size="11" font-family="Helvetica, Arial, sans-serif" font-weight="normal" text-anchor="middle" fill="#1f2937">33.7</text>
<text x="660.0" y="122.0" font-size="11" font-family="Helvetica, Arial, sans-serif" font-weight="normal" text-anchor="end" fill="#1f2937">33.7</text>
<line x1="668.0" y1="536.0" x2="1142.0" y2="118.0" stroke="#374151" stroke-width="1.5" stroke-dasharray="5 4" />
<line x1="668.0" y1="426.6" x2="1142.0" y2="352.1" stroke="#b91c1c" stroke-width="2.0" />
<circle cx="769.2" cy="333.9" r="3.2" fill="#0f766e" fill-opacity="0.420" />
<circle cx="766.3" cy="449.2" r="3.2" fill="#0f766e" fill-opacity="0.420" />
<circle cx="785.3" cy="430.7" r="3.2" fill="#0f766e" fill-opacity="0.420" />
<circle cx="727.9" cy="440.4" r="3.2" fill="#0f766e" fill-opacity="0.420" />
<circle cx="737.6" cy="453.7" r="3.2" fill="#0f766e" fill-opacity="0.420" />
<circle cx="736.1" cy="439.1" r="3.2" fill="#0f766e" fill-opacity="0.420" />
<circle cx="802.3" cy="453.8" r="3.2" fill="#0f766e" fill-opacity="0.420" />
<circle cx="803.9" cy="449.3" r="3.2" fill="#0f766e" fill-opacity="0.420" />
<circle cx="779.2" cy="409.1" r="3.2" fill="#0f766e" fill-opacity="0.420" />
<circle cx="792.8" cy="499.3" r="3.2" fill="#0f766e" fill-opacity="0.420" />
<circle cx="788.5" cy="444.9" r="3.2" fill="#0f766e" fill-opacity="0.420" />
<circle cx="783.1" cy="466.7" r="3.2" fill="#0f766e" fill-opacity="0.420" />
<circle cx="787.0" cy="487.8" r="3.2" fill="#0f766e" fill-opacity="0.420" />
<circle cx="769.9" cy="517.0" r="3.2" fill="#0f766e" fill-opacity="0.420" />
<circle cx="775.4" cy="432.2" r="3.2" fill="#0f766e" fill-opacity="0.420" />
<circle cx="759.3" cy="413.1" r="3.2" fill="#0f766e" fill-opacity="0.420" />
<circle cx="757.9" cy="292.7" r="3.2" fill="#0f766e" fill-opacity="0.420" />
<circle cx="767.6" cy="415.1" r="3.2" fill="#0f766e" fill-opacity="0.420" />
<circle cx="780.6" cy="492.5" r="3.2" fill="#0f766e" fill-opacity="0.420" />
<circle cx="791.4" cy="406.0" r="3.2" fill="#0f766e" fill-opacity="0.420" />
<circle cx="791.4" cy="467.9" r="3.2" fill="#0f766e" fill-opacity="0.420" />
<circle cx="794.7" cy="371.6" r="3.2" fill="#0f766e" fill-opacity="0.420" />
<circle cx="838.0" cy="417.0" r="3.2" fill="#0f766e" fill-opacity="0.420" />
<circle cx="838.0" cy="497.1" r="3.2" fill="#0f766e" fill-opacity="0.420" />
<circle cx="883.4" cy="416.5" r="3.2" fill="#0f766e" fill-opacity="0.420" />
<circle cx="883.4" cy="471.4" r="3.2" fill="#0f766e" fill-opacity="0.420" />
<circle cx="826.3" cy="387.5" r="3.2" fill="#0f766e" fill-opacity="0.420" />
<circle cx="791.2" cy="269.1" r="3.2" fill="#0f766e" fill-opacity="0.420" />
<circle cx="786.6" cy="426.9" r="3.2" fill="#0f766e" fill-opacity="0.420" />
<circle cx="772.4" cy="137.0" r="3.2" fill="#0f766e" fill-opacity="0.420" />
<circle cx="768.7" cy="348.7" r="3.2" fill="#0f766e" fill-opacity="0.420" />
<circle cx="757.1" cy="329.9" r="3.2" fill="#0f766e" fill-opacity="0.420" />
<circle cx="766.0" cy="370.6" r="3.2" fill="#0f766e" fill-opacity="0.420" />
<circle cx="760.6" cy="440.0" r="3.2" fill="#0f766e" fill-opacity="0.420" />
<circle cx="762.5" cy="450.2" r="3.2" fill="#0f766e" fill-opacity="0.420" />
<circle cx="759.3" cy="438.9" r="3.2" fill="#0f766e" fill-opacity="0.420" />
<circle cx="759.3" cy="471.0" r="3.2" fill="#0f766e" fill-opacity="0.420" />
<circle cx="759.1" cy="393.3" r="3.2" fill="#0f766e" fill-opacity="0.420" />
<circle cx="799.8" cy="446.1" r="3.2" fill="#0f766e" fill-opacity="0.420" />
<circle cx="799.8" cy="417.6" r="3.2" fill="#0f766e" fill-opacity="0.420" />
<circle cx="814.5" cy="397.7" r="3.2" fill="#0f766e" fill-opacity="0.420" />
<circle cx="809.9" cy="413.3" r="3.2" fill="#0f766e" fill-opacity="0.420" />
<circle cx="803.8" cy="356.3" r="3.2" fill="#0f766e" fill-opacity="0.420" />
<circle cx="827.3" cy="386.3" r="3.2" fill="#0f766e" fill-opacity="0.420" />
<circle cx="819.3" cy="389.9" r="3.2" fill="#0f766e" fill-opacity="0.420" />
<circle cx="818.0" cy="408.8" r="3.2" fill="#0f766e" fill-opacity="0.420" />
<circle cx="819.4" cy="430.0" r="3.2" fill="#0f766e" fill-opacity="0.420" />
<circle cx="815.1" cy="386.5" r="3.2" fill="#0f766e" fill-opacity="0.420" />
<circle cx="790.4" cy="439.4" r="3.2" fill="#0f766e" fill-opacity="0.420" />
<circle cx="821.1" cy="429.3" r="3.2" fill="#0f766e" fill-opacity="0.420" />
<circle cx="819.2" cy="391.8" r="3.2" fill="#0f766e" fill-opacity="0.420" />
<circle cx="833.0" cy="448.3" r="3.2" fill="#0f766e" fill-opacity="0.420" />
<circle cx="792.4" cy="410.8" r="3.2" fill="#0f766e" fill-opacity="0.420" />
<circle cx="796.9" cy="429.2" r="3.2" fill="#0f766e" fill-opacity="0.420" />
<circle cx="802.0" cy="376.7" r="3.2" fill="#0f766e" fill-opacity="0.420" />
<circle cx="791.2" cy="311.2" r="3.2" fill="#0f766e" fill-opacity="0.420" />
<circle cx="788.9" cy="449.7" r="3.2" fill="#0f766e" fill-opacity="0.420" />
<circle cx="800.9" cy="437.9" r="3.2" fill="#0f766e" fill-opacity="0.420" />
<circle cx="793.7" cy="417.4" r="3.2" fill="#0f766e" fill-opacity="0.420" />
<circle cx="794.5" cy="351.1" r="3.2" fill="#0f766e" fill-opacity="0.420" />
<circle cx="788.9" cy="447.7" r="3.2" fill="#0f766e" fill-opacity="0.420" />
<circle cx="794.6" cy="429.1" r="3.2" fill="#0f766e" fill-opacity="0.420" />
<circle cx="775.3" cy="463.3" r="3.2" fill="#0f766e" fill-opacity="0.420" />
<circle cx="771.9" cy="405.6" r="3.2" fill="#0f766e" fill-opacity="0.420" />
<circle cx="748.7" cy="277.9" r="3.2" fill="#0f766e" fill-opacity="0.420" />
<circle cx="745.0" cy="432.0" r="3.2" fill="#0f766e" fill-opacity="0.420" />
<circle cx="739.1" cy="442.3" r="3.2" fill="#0f766e" fill-opacity="0.420" />
<circle cx="745.9" cy="394.8" r="3.2" fill="#0f766e" fill-opacity="0.420" />
<circle cx="759.0" cy="417.1" r="3.2" fill="#0f766e" fill-opacity="0.420" />
<circle cx="784.0" cy="420.3" r="3.2" fill="#0f766e" fill-opacity="0.420" />
<circle cx="787.9" cy="399.6" r="3.2" fill="#0f766e" fill-opacity="0.420" />
<circle cx="791.6" cy="449.5" r="3.2" fill="#0f766e" fill-opacity="0.420" />
<circle cx="789.9" cy="420.5" r="3.2" fill="#0f766e" fill-opacity="0.420" />
<circle cx="794.5" cy="403.9" r="3.2" fill="#0f766e" fill-opacity="0.420" />
<circle cx="792.6" cy="452.0" r="3.2" fill="#0f766e" fill-opacity="0.420" />
<circle cx="766.6" cy="421.1" r="3.2" fill="#0f766e" fill-opacity="0.420" />
<circle cx="872.8" cy="418.0" r="3.2" fill="#0f766e" fill-opacity="0.420" />
<circle cx="872.5" cy="408.5" r="3.2" fill="#0f766e" fill-opacity="0.420" />
<circle cx="871.7" cy="450.3" r="3.2" fill="#0f766e" fill-opacity="0.420" />
<circle cx="893.6" cy="434.4" r="3.2" fill="#0f766e" fill-opacity="0.420" />
<circle cx="922.7" cy="411.2" r="3.2" fill="#0f766e" fill-opacity="0.420" />
<circle cx="964.6" cy="500.4" r="3.2" fill="#0f766e" fill-opacity="0.420" />
<circle cx="984.1" cy="497.4" r="3.2" fill="#0f766e" fill-opacity="0.420" />
<circle cx="745.6" cy="205.3" r="3.2" fill="#0f766e" fill-opacity="0.420" />
<circle cx="745.6" cy="366.9" r="3.2" fill="#0f766e" fill-opacity="0.420" />
<circle cx="745.6" cy="177.5" r="3.2" fill="#0f766e" fill-opacity="0.420" />
<circle cx="750.2" cy="329.1" r="3.2" fill="#0f766e" fill-opacity="0.420" />
<circle cx="757.2" cy="400.4" r="3.2" fill="#0f766e" fill-opacity="0.420" />
<circle cx="787.7" cy="332.3" r="3.2" fill="#0f766e" fill-opacity="0.420" />
<circle cx="773.4" cy="472.9" r="3.2" fill="#0f766e" fill-opacity="0.420" />
<circle cx="773.4" cy="477.0" r="3.2" fill="#0f766e" fill-opacity="0.420" />
<circle cx="773.4" cy="439.5" r="3.2" fill="#0f766e" fill-opacity="0.420" />
<circle cx="749.1" cy="417.3" r="3.2" fill="#0f766e" fill-opacity="0.420" />
<circle cx="747.6" cy="485.4" r="3.2" fill="#0f766e" fill-opacity="0.420" />
<circle cx="742.2" cy="375.5" r="3.2" fill="#0f766e" fill-opacity="0.420" />
<circle cx="743.5" cy="448.7" r="3.2" fill="#0f766e" fill-opacity="0.420" />
<circle cx="722.2" cy="407.4" r="3.2" fill="#0f766e" fill-opacity="0.420" />
<circle cx="725.5" cy="496.7" r="3.2" fill="#0f766e" fill-opacity="0.420" />
<circle cx="755.0" cy="438.8" r="3.2" fill="#0f766e" fill-opacity="0.420" />
<circle cx="763.6" cy="440.3" r="3.2" fill="#0f766e" fill-opacity="0.420" />
<circle cx="766.6" cy="470.8" r="3.2" fill="#0f766e" fill-opacity="0.420" />
<circle cx="743.7" cy="481.4" r="3.2" fill="#0f766e" fill-opacity="0.420" />
<circle cx="747.8" cy="449.4" r="3.2" fill="#0f766e" fill-opacity="0.420" />
<circle cx="751.0" cy="412.7" r="3.2" fill="#0f766e" fill-opacity="0.420" />
<circle cx="752.4" cy="445.4" r="3.2" fill="#0f766e" fill-opacity="0.420" />
<circle cx="769.6" cy="426.1" r="3.2" fill="#0f766e" fill-opacity="0.420" />
<circle cx="750.3" cy="462.5" r="3.2" fill="#0f766e" fill-opacity="0.420" />
<circle cx="756.8" cy="418.8" r="3.2" fill="#0f766e" fill-opacity="0.420" />
<circle cx="773.8" cy="447.4" r="3.2" fill="#0f766e" fill-opacity="0.420" />
<circle cx="744.2" cy="508.3" r="3.2" fill="#0f766e" fill-opacity="0.420" />
<circle cx="738.2" cy="421.7" r="3.2" fill="#0f766e" fill-opacity="0.420" />
<circle cx="740.7" cy="499.5" r="3.2" fill="#0f766e" fill-opacity="0.420" />
<circle cx="790.4" cy="486.8" r="3.2" fill="#0f766e" fill-opacity="0.420" />
<circle cx="808.2" cy="428.9" r="3.2" fill="#0f766e" fill-opacity="0.420" />
<circle cx="804.9" cy="424.4" r="3.2" fill="#0f766e" fill-opacity="0.420" />
<circle cx="810.7" cy="491.7" r="3.2" fill="#0f766e" fill-opacity="0.420" />
<circle cx="810.4" cy="513.3" r="3.2" fill="#0f766e" fill-opacity="0.420" />
<circle cx="793.0" cy="458.2" r="3.2" fill="#0f766e" fill-opacity="0.420" />
<circle cx="801.3" cy="486.5" r="3.2" fill="#0f766e" fill-opacity="0.420" />
<circle cx="835.2" cy="440.9" r="3.2" fill="#0f766e" fill-opacity="0.420" />
<circle cx="866.2" cy="402.2" r="3.2" fill="#0f766e" fill-opacity="0.420" />
<circle cx="798.5" cy="404.4" r="3.2" fill="#0f766e" fill-opacity="0.420" />
<circle cx="794.3" cy="498.1" r="3.2" fill="#0f766e" fill-opacity="0.420" />
<circle cx="793.1" cy="323.4" r="3.2" fill="#0f766e" fill-opacity="0.420" />
<circle cx="767.4" cy="447.9" r="3.2" fill="#0f766e" fill-opacity="0.420" />
<circle cx="853.5" cy="447.0" r="3.2" fill="#0f766e" fill-opacity="0.420" />
<circle cx="839.6" cy="226.6" r="3.2" fill="#0f766e" fill-opacity="0.420" />
<circle cx="939.8" cy="321.5" r="3.2" fill="#0f766e" fill-opacity="0.420" />
<circle cx="868.9" cy="352.1" r="3.2" fill="#0f766e" fill-opacity="0.420" />
<circle cx="868.9" cy="500.2" r="3.2" fill="#0f766e" fill-opacity="0.420" />
<circle cx="893.2" cy="417.1" r="3.2" fill="#0f766e" fill-opacity="0.420" />
<circle cx="890.9" cy="374.6" r="3.2" fill="#0f766e" fill-opacity="0.420" />
<circle cx="890.9" cy="322.2" r="3.2" fill="#0f766e" fill-opacity="0.420" />
<circle cx="849.8" cy="357.3" r="3.2" fill="#0f766e" fill-opacity="0.420" />
<circle cx="895.3" cy="381.2" r="3.2" fill="#0f766e" fill-opacity="0.420" />
<circle cx="881.0" cy="288.7" r="3.2" fill="#0f766e" fill-opacity="0.420" />
<circle cx="884.5" cy="261.9" r="3.2" fill="#0f766e" fill-opacity="0.420" />
<circle cx="875.8" cy="267.6" r="3.2" fill="#0f766e" fill-opacity="0.420" />
<circle cx="843.4" cy="471.1" r="3.2" fill="#0f766e" fill-opacity="0.420" />
<circle cx="850.4" cy="383.5" r="3.2" fill="#0f766e" fill-opacity="0.420" />
<circle cx="837.0" cy="313.2" r="3.2" fill="#0f766e" fill-opacity="0.420" />
<circle cx="808.5" cy="335.1" r="3.2" fill="#0f766e" fill-opacity="0.420" />
<circle cx="804.9" cy="302.9" r="3.2" fill="#0f766e" fill-opacity="0.420" />
<circle cx="910.0" cy="319.2" r="3.2" fill="#0f766e" fill-opacity="0.420" />
<circle cx="929.0" cy="331.0" r="3.2" fill="#0f766e" fill-opacity="0.420" />
<circle cx="961.0" cy="305.5" r="3.2" fill="#0f766e" fill-opacity="0.420" />
<circle cx="949.3" cy="383.0" r="3.2" fill="#0f766e" fill-opacity="0.420" />
<circle cx="910.7" cy="360.8" r="3.2" fill="#0f766e" fill-opacity="0.420" />
<circle cx="903.0" cy="361.6" r="3.2" fill="#0f766e" fill-opacity="0.420" />
<circle cx="874.0" cy="350.7" r="3.2" fill="#0f766e" fill-opacity="0.420" />
<circle cx="876.0" cy="441.8" r="3.2" fill="#0f766e" fill-opacity="0.420" />
<circle cx="913.4" cy="436.2" r="3.2" fill="#0f766e" fill-opacity="0.420" />
<circle cx="913.4" cy="432.4" r="3.2" fill="#0f766e" fill-opacity="0.420" />
<circle cx="878.6" cy="339.5" r="3.2" fill="#0f766e" fill-opacity="0.420" />
<circle cx="871.8" cy="342.0" r="3.2" fill="#0f766e" fill-opacity="0.420" />
<circle cx="819.2" cy="342.4" r="3.2" fill="#0f766e" fill-opacity="0.420" />
<circle cx="824.7" cy="393.6" r="3.2" fill="#0f766e" fill-opacity="0.420" />
<circle cx="846.9" cy="366.9" r="3.2" fill="#0f766e" fill-opacity="0.420" />
<circle cx="860.3" cy="404.0" r="3.2" fill="#0f766e" fill-opacity="0.420" />
<circle cx="858.1" cy="197.8" r="3.2" fill="#0f766e" fill-opacity="0.420" />
<circle cx="868.7" cy="429.8" r="3.2" fill="#0f766e" fill-opacity="0.420" />
<circle cx="1003.2" cy="392.8" r="3.2" fill="#0f766e" fill-opacity="0.420" />
<circle cx="1023.6" cy="358.8" r="3.2" fill="#0f766e" fill-opacity="0.420" />
<circle cx="1040.8" cy="389.2" r="3.2" fill="#0f766e" fill-opacity="0.420" />
<circle cx="1040.8" cy="399.8" r="3.2" fill="#0f766e" fill-opacity="0.420" />
<circle cx="782.0" cy="335.7" r="3.2" fill="#0f766e" fill-opacity="0.420" />
<circle cx="781.0" cy="177.4" r="3.2" fill="#0f766e" fill-opacity="0.420" />
<text x="885.0" y="570.0" font-size="12" font-family="Helvetica, Arial, sans-serif" font-weight="normal" text-anchor="middle" fill="#1f2937">Observed weekly mean chlorophyll (mg m^-3)</text>
<text x="626.0" y="330.0" font-size="12" font-family="Helvetica, Arial, sans-serif" fill="#1f2937" text-anchor="middle" transform="rotate(-90 626.0 330.0)">Predicted weekly mean chlorophyll (mg m^-3)</text>
</svg>