<svg xmlns="http://www.w3.org/2000/svg" width="1200" height="620" viewBox="0 0 1200 620">
<rect width="100%" height="100%" fill="#f8fafc" />
<text x="600.0" y="36.0" font-size="24" font-family="Helvetica, Arial, sans-serif" font-weight="bold" text-anchor="middle" fill="#1f2937">Week 1 Regression Diagnostics</text>
<text x="600.0" y="58.0" font-size="14" font-family="Helvetica, Arial, sans-serif" font-weight="normal" text-anchor="middle" fill="#1f2937">Holdout-period predicted vs observed weekly averages</text>
<rect x="40.0" y="80.0" width="550.0" height="500.0" fill="#ffffff" stroke="#d1d5db" stroke-width="1" rx="10" ry="10" />
<text x="58.0" y="104.0" font-size="16" font-family="Helvetica, Arial, sans-serif" font-weight="bold" text-anchor="start" fill="#1f2937">Model vs observed (matched subset)</text>
<text x="58.0" y="124.0" font-size="12" font-family="Helvetica, Arial, sans-serif" font-weight="normal" text-anchor="start" fill="#1f2937">R²=0.483  RMSE=3.207  MAE=2.431</text>
<line x1="98.0" y1="118.0" x2="98.0" y2="536.0" stroke="#e5e7eb" stroke-width="1.0" />
<line x1="98.0" y1="536.0" x2="572.0" y2="536.0" stroke="#e5e7eb" stroke-width="1.0" />
<text x="98.0" y="556.0" font-size="11" font-family="Helvetica, Arial, sans-serif" font-weight="normal" text-anchor="middle" fill="#1f2937">0.0</text>
<text x="90.0" y="540.0" font-size="11" font-family="Helvetica, Arial, sans-serif" font-weight="normal" text-anchor="end" fill="#1f2937">0.0</text>
<line x1="216.5" y1="118.0" x2="216.5" y2="536.0" stroke="#e5e7eb" stroke-width="1.0" />
<line x1="98.0" y1="431.5" x2="572.0" y2="431.5" stroke="#e5e7eb" stroke-width="1.0" />
<text x="216.5" y="556.0" font-size="11" font-family="Helvetica, Arial, sans-serif" font-weight="normal" text-anchor="middle" fill="#1f2937">9.4</text>
<text x="90.0" y="435.5" font-size="11" font-family="Helvetica, Arial, sans-serif" font-weight="normal" text-anchor="end" fill="#1f2937">9.4</text>
<line x1="335.0" y1="118.0" x2="335.0" y2="536.0" stroke="#e5e7eb" stroke-width="1.0" />
<line x1="98.0" y1="327.0" x2="572.0" y2="327.0" stroke="#e5e7eb" stroke-width="1.0" />
<text x="335.0" y="556.0" font-size="11" font-family="Helvetica, Arial, sans-serif" font-weight="normal" text-anchor="middle" fill="#1f2937">18.9</text>
<text x="90.0" y="331.0" font-size="11" font-family="Helvetica, Arial, sans-serif" font-weight="normal" text-anchor="end" fill="#1f2937">18.9</text>
<line x1="453.5" y1="118.0" x2="453.5" y2="536.0" stroke="#e5e7eb" stroke-width="1.0" />
<line x1="98.0" y1="222.5" x2="572.0" y2="222.5" stroke="#e5e7eb" stroke-width="1.0" />
<text x="453.5" y="556.0" font-size="11" font-family="Helvetica, Arial, sans-serif" font-weight="normal" text-anchor="middle" fill="#1f2937">28.3</text>
<text x="90.0" y="226.5" font-size="11" font-family="Helvetica, Arial, sans-serif" font-weight="normal" text-anchor="end" fill="#1f2937">28.3</text>
<line x1="572.0" y1="118.0" x2="572.0" y2="536.0" stroke="#e5e7eb" stroke-width="1.0" />
<line x1="98.0" y1="118.0" x2="572.0" y2="118.0" stroke="#e5e7eb" stroke-width="1.0" />
<text x="572.0" y="556.0" font-size="11" font-family="Helvetica, Arial, sans-serif" font-weight="normal" text-anchor="middle" fill="#1f2937">37.8</text>
<text x="90.0" y="122.0" font-size="11" font-family="Helvetica, Arial, sans-serif" font-weight="normal" text-anchor="end" fill="#1f2937">37.8</text>
<line x1="98.0" y1="536.0" x2="572.0" y2="118.0" stroke="#374151" stroke-width="1.5" stroke-dasharray="5 4" />
<line x1="98.0" y1="481.5" x2="572.0" y2="262.1" stroke="#b91c1c" stroke-width="2.0" />
<circle cx="204.6" cy="454.9" r="3.2" fill="#0f766e" fill-opacity="0.420" />
<circle cx="182.0" cy="455.8" r="3.2" fill="#0f766e" fill-opacity="0.420" />
<circle cx="153.7" cy="456.1" r="3.2" fill="#0f766e" fill-opacity="0.420" />
<circle cx="167.2" cy="455.1" r="3.2" fill="#0f766e" fill-opacity="0.420" />
<circle cx="160.9" cy="441.7" r="3.2" fill="#0f766e" fill-opacity="0.420" />
<circle cx="174.5" cy="434.0" r="3.2" fill="#0f766e" fill-opacity="0.420" />
<circle cx="223.6" cy="436.4" r="3.2" fill="#0f766e" fill-opacity="0.420" />
<circle cx="221.2" cy="451.8" r="3.2" fill="#0f766e" fill-opacity="0.420" />
<circle cx="185.8" cy="447.2" r="3.2" fill="#0f766e" fill-opacity="0.420" />
<circle cx="194.6" cy="440.3" r="3.2" fill="#0f766e" fill-opacity="0.420" />
<circle cx="206.9" cy="438.3" r="3.2" fill="#0f766e" fill-opacity="0.420" />
<circle cx="211.3" cy="436.8" r="3.2" fill="#0f766e" fill-opacity="0.420" />
<circle cx="202.7" cy="443.1" r="3.2" fill="#0f766e" fill-opacity="0.420" />
<circle cx="206.2" cy="439.8" r="3.2" fill="#0f766e" fill-opacity="0.420" />
<circle cx="190.9" cy="431.6" r="3.2" fill="#0f766e" fill-opacity="0.420" />
<circle cx="181.8" cy="420.5" r="3.2" fill="#0f766e" fill-opacity="0.420" />
<circle cx="184.9" cy="423.7" r="3.2" fill="#0f766e" fill-opacity="0.420" />
<circle cx="184.1" cy="417.6" r="3.2" fill="#0f766e" fill-opacity="0.420" />
<circle cx="180.3" cy="436.6" r="3.2" fill="#0f766e" fill-opacity="0.420" />
<circle cx="182.4" cy="434.5" r="3.2" fill="#0f766e" fill-opacity="0.420" />
<circle cx="188.9" cy="429.4" r="3.2" fill="#0f766e" fill-opacity="0.420" />
<circle cx="210.1" cy="444.9" r="3.2" fill="#0f766e" fill-opacity="0.420" />
<circle cx="213.0" cy="447.4" r="3.2" fill="#0f766e" fill-opacity="0.420" />
<circle cx="241.1" cy="420.3" r="3.2" fill="#0f766e" fill-opacity="0.420" />
<circle cx="220.5" cy="425.9" r="3.2" fill="#0f766e" fill-opacity="0.420" />
<circle cx="209.9" cy="415.5" r="3.2" fill="#0f766e" fill-opacity="0.420" />
<circle cx="198.5" cy="417.9" r="3.2" fill="#0f766e" fill-opacity="0.420" />
<circle cx="198.8" cy="416.9" r="3.2" fill="#0f766e" fill-opacity="0.420" />
<circle cx="199.8" cy="425.7" r="3.2" fill="#0f766e" fill-opacity="0.420" />
<circle cx="205.2" cy="427.9" r="3.2" fill="#0f766e" fill-opacity="0.420" />
<circle cx="216.2" cy="421.3" r="3.2" fill="#0f766e" fill-opacity="0.420" />
<circle cx="205.8" cy="422.6" r="3.2" fill="#0f766e" fill-opacity="0.420" />
<circle cx="197.4" cy="447.9" r="3.2" fill="#0f766e" fill-opacity="0.420" />
<circle cx="192.2" cy="452.8" r="3.2" fill="#0f766e" fill-opacity="0.420" />
<circle cx="189.9" cy="450.7" r="3.2" fill="#0f766e" fill-opacity="0.420" />
<circle cx="179.6" cy="442.6" r="3.2" fill="#0f766e" fill-opacity="0.420" />
<circle cx="187.5" cy="441.8" r="3.2" fill="#0f766e" fill-opacity="0.420" />
<circle cx="184.4" cy="443.6" r="3.2" fill="#0f766e" fill-opacity="0.420" />
<circle cx="182.5" cy="442.5" r="3.2" fill="#0f766e" fill-opacity="0.420" />
<circle cx="181.5" cy="444.0" r="3.2" fill="#0f766e" fill-opacity="0.420" />
<circle cx="181.3" cy="437.5" r="3.2" fill="#0f766e" fill-opacity="0.420" />
<circle cx="201.6" cy="429.4" r="3.2" fill="#0f766e" fill-opacity="0.420" />
<circle cx="214.6" cy="435.5" r="3.2" fill="#0f766e" fill-opacity="0.420" />
<circle cx="217.5" cy="437.8" r="3.2" fill="#0f766e" fill-opacity="0.420" />
<circle cx="237.2" cy="434.9" r="3.2" fill="#0f766e" fill-opacity="0.420" />
<circle cx="226.5" cy="437.4" r="3.2" fill="#0f766e" fill-opacity="0.420" />
<circle cx="221.2" cy="439.1" r="3.2" fill="#0f766e" fill-opacity="0.420" />
<circle cx="216.0" cy="421.0" r="3.2" fill="#0f766e" fill-opacity="0.420" />
<circle cx="221.1" cy="446.2" r="3.2" fill="#0f766e" fill-opacity="0.420" />
<circle cx="255.6" cy="440.2" r="3.2" fill="#0f766e" fill-opacity="0.420" />
<circle cx="233.7" cy="421.9" r="3.2" fill="#0f766e" fill-opacity="0.420" />
<circle cx="246.9" cy="416.8" r="3.2" fill="#0f766e" fill-opacity="0.420" />
<circle cx="234.9" cy="419.8" r="3.2" fill="#0f766e" fill-opacity="0.420" />
<circle cx="209.2" cy="397.0" r="3.2" fill="#0f766e" fill-opacity="0.420" />
<circle cx="215.5" cy="401.6" r="3.2" fill="#0f766e" fill-opacity="0.420" />
<circle cx="238.6" cy="425.7" r="3.2" fill="#0f766e" fill-opacity="0.420" />
<circle cx="236.5" cy="427.2" r="3.2" fill="#0f766e" fill-opacity="0.420" />
<circle cx="223.4" cy="420.6" r="3.2" fill="#0f766e" fill-opacity="0.420" />
<circle cx="229.0" cy="423.2" r="3.2" fill="#0f766e" fill-opacity="0.420" />
<circle cx="234.8" cy="421.3" r="3.2" fill="#0f766e" fill-opacity="0.420" />
<circle cx="247.0" cy="418.3" r="3.2" fill="#0f766e" fill-opacity="0.420" />
<circle cx="244.7" cy="432.0" r="3.2" fill="#0f766e" fill-opacity="0.420" />
<circle cx="208.6" cy="424.9" r="3.2" fill="#0f766e" fill-opacity="0.420" />
<circle cx="210.9" cy="429.6" r="3.2" fill="#0f766e" fill-opacity="0.420" />
<circle cx="214.9" cy="437.0" r="3.2" fill="#0f766e" fill-opacity="0.420" />
<circle cx="208.5" cy="436.2" r="3.2" fill="#0f766e" fill-opacity="0.420" />
<circle cx="207.8" cy="414.7" r="3.2" fill="#0f766e" fill-opacity="0.420" />
<circle cx="218.5" cy="425.5" r="3.2" fill="#0f766e" fill-opacity="0.420" />
<circle cx="212.1" cy="446.1" r="3.2" fill="#0f766e" fill-opacity="0.420" />
<circle cx="207.8" cy="450.1" r="3.2" fill="#0f766e" fill-opacity="0.420" />
<circle cx="212.9" cy="447.5" r="3.2" fill="#0f766e" fill-opacity="0.420" />
<circle cx="195.7" cy="443.3" r="3.2" fill="#0f766e" fill-opacity="0.420" />
<circle cx="172.1" cy="447.3" r="3.2" fill="#0f766e" fill-opacity="0.420" />
<circle cx="168.9" cy="448.3" r="3.2" fill="#0f766e" fill-opacity="0.420" />
<circle cx="163.6" cy="449.4" r="3.2" fill="#0f766e" fill-opacity="0.420" />
<circle cx="174.9" cy="439.7" r="3.2" fill="#0f766e" fill-opacity="0.420" />
<circle cx="181.3" cy="439.2" r="3.2" fill="#0f766e" fill-opacity="0.420" />
<circle cx="211.9" cy="429.0" r="3.2" fill="#0f766e" fill-opacity="0.420" />
<circle cx="210.2" cy="433.7" r="3.2" fill="#0f766e" fill-opacity="0.420" />
<circle cx="209.4" cy="436.1" r="3.2" fill="#0f766e" fill-opacity="0.420" />
<circle cx="211.2" cy="444.2" r="3.2" fill="#0f766e" fill-opacity="0.420" />
<circle cx="188.0" cy="440.5" r="3.2" fill="#0f766e" fill-opacity="0.420" />
<circle cx="176.1" cy="441.3" r="3.2" fill="#0f766e" fill-opacity="0.420" />
<circle cx="282.2" cy="400.0" r="3.2" fill="#0f766e" fill-opacity="0.420" />
<circle cx="300.9" cy="399.1" r="3.2" fill="#0f766e" fill-opacity="0.420" />
<circle cx="330.6" cy="405.8" r="3.2" fill="#0f766e" fill-opacity="0.420" />
<circle cx="326.8" cy="426.0" r="3.2" fill="#0f766e" fill-opacity="0.420" />
<circle cx="359.3" cy="410.7" r="3.2" fill="#0f766e" fill-opacity="0.420" />
<circle cx="364.0" cy="396.1" r="3.2" fill="#0f766e" fill-opacity="0.420" />
<circle cx="381.3" cy="402.5" r="3.2" fill="#0f766e" fill-opacity="0.420" />
<circle cx="342.4" cy="390.6" r="3.2" fill="#0f766e" fill-opacity="0.420" />
<circle cx="319.6" cy="377.3" r="3.2" fill="#0f766e" fill-opacity="0.420" />
<circle cx="173.4" cy="389.5" r="3.2" fill="#0f766e" fill-opacity="0.420" />
<circle cx="180.8" cy="396.7" r="3.2" fill="#0f766e" fill-opacity="0.420" />
<circle cx="179.7" cy="421.8" r="3.2" fill="#0f766e" fill-opacity="0.420" />
<circle cx="186.9" cy="427.2" r="3.2" fill="#0f766e" fill-opacity="0.420" />
<circle cx="203.2" cy="448.5" r="3.2" fill="#0f766e" fill-opacity="0.420" />
<circle cx="206.7" cy="457.5" r="3.2" fill="#0f766e" fill-opacity="0.420" />
<circle cx="166.3" cy="451.0" r="3.2" fill="#0f766e" fill-opacity="0.420" />
<circle cx="171.6" cy="440.5" r="3.2" fill="#0f766e" fill-opacity="0.420" />
<circle cx="168.6" cy="445.4" r="3.2" fill="#0f766e" fill-opacity="0.420" />
<circle cx="167.5" cy="450.1" r="3.2" fill="#0f766e" fill-opacity="0.420" />
<circle cx="151.5" cy="442.3" r="3.2" fill="#0f766e" fill-opacity="0.420" />
<circle cx="171.7" cy="476.2" r="3.2" fill="#0f766e" fill-opacity="0.420" />
<circle cx="177.2" cy="476.1" r="3.2" fill="#0f766e" fill-opacity="0.420" />
<circle cx="182.4" cy="475.7" r="3.2" fill="#0f766e" fill-opacity="0.420" />
<circle cx="177.7" cy="475.5" r="3.2" fill="#0f766e" fill-opacity="0.420" />
<circle cx="175.2" cy="478.6" r="3.2" fill="#0f766e" fill-opacity="0.420" />
<circle cx="189.9" cy="473.7" r="3.2" fill="#0f766e" fill-opacity="0.420" />
<circle cx="177.7" cy="472.7" r="3.2" fill="#0f766e" fill-opacity="0.420" />
<circle cx="188.0" cy="473.3" r="3.2" fill="#0f766e" fill-opacity="0.420" />
<circle cx="167.7" cy="471.6" r="3.2" fill="#0f766e" fill-opacity="0.420" />
<circle cx="171.3" cy="470.9" r="3.2" fill="#0f766e" fill-opacity="0.420" />
<circle cx="175.4" cy="479.0" r="3.2" fill="#0f766e" fill-opacity="0.420" />
<circle cx="169.2" cy="469.5" r="3.2" fill="#0f766e" fill-opacity="0.420" />
<circle cx="203.4" cy="470.1" r="3.2" fill="#0f766e" fill-opacity="0.420" />
<circle cx="185.8" cy="474.5" r="3.2" fill="#0f766e" fill-opacity="0.420" />
<circle cx="175.7" cy="475.4" r="3.2" fill="#0f766e" fill-opacity="0.420" />
<circle cx="194.4" cy="476.9" r="3.2" fill="#0f766e" fill-opacity="0.420" />
<circle cx="168.1" cy="480.9" r="3.2" fill="#0f766e" fill-opacity="0.420" />
<circle cx="162.8" cy="477.3" r="3.2" fill="#0f766e" fill-opacity="0.420" />
<circle cx="173.7" cy="469.7" r="3.2" fill="#0f766e" fill-opacity="0.420" />
<circle cx="165.0" cy="478.5" r="3.2" fill="#0f766e" fill-opacity="0.420" />
<circle cx="227.2" cy="462.9" r="3.2" fill="#0f766e" fill-opacity="0.420" />
<circle cx="226.9" cy="467.7" r="3.2" fill="#0f766e" fill-opacity="0.420" />
<circle cx="215.3" cy="470.9" r="3.2" fill="#0f766e" fill-opacity="0.420" />
<circle cx="211.0" cy="477.9" r="3.2" fill="#0f766e" fill-opacity="0.420" />
<circle cx="219.7" cy="456.5" r="3.2" fill="#0f766e" fill-opacity="0.420" />
<circle cx="190.1" cy="448.9" r="3.2" fill="#0f766e" fill-opacity="0.420" />
<circle cx="219.7" cy="432.2" r="3.2" fill="#0f766e" fill-opacity="0.420" />
<circle cx="218.9" cy="421.1" r="3.2" fill="#0f766e" fill-opacity="0.420" />
<circle cx="248.9" cy="430.9" r="3.2" fill="#0f766e" fill-opacity="0.420" />
<circle cx="276.5" cy="431.5" r="3.2" fill="#0f766e" fill-opacity="0.420" />
<circle cx="216.4" cy="390.1" r="3.2" fill="#0f766e" fill-opacity="0.420" />
<circle cx="188.8" cy="406.5" r="3.2" fill="#0f766e" fill-opacity="0.420" />
<circle cx="199.2" cy="419.5" r="3.2" fill="#0f766e" fill-opacity="0.420" />
<circle cx="265.3" cy="416.6" r="3.2" fill="#0f766e" fill-opacity="0.420" />
<circle cx="237.2" cy="424.9" r="3.2" fill="#0f766e" fill-opacity="0.420" />
<circle cx="287.2" cy="411.6" r="3.2" fill="#0f766e" fill-opacity="0.420" />
<circle cx="303.4" cy="400.9" r="3.2" fill="#0f766e" fill-opacity="0.420" />
<circle cx="341.9" cy="419.3" r="3.2" fill="#0f766e" fill-opacity="0.420" />
<circle cx="270.1" cy="432.3" r="3.2" fill="#0f766e" fill-opacity="0.420" />
<circle cx="301.3" cy="419.6" r="3.2" fill="#0f766e" fill-opacity="0.420" />
<circle cx="300.6" cy="402.4" r="3.2" fill="#0f766e" fill-opacity="0.420" />
<circle cx="278.9" cy="381.2" r="3.2" fill="#0f766e" fill-opacity="0.420" />
<circle cx="261.9" cy="375.9" r="3.2" fill="#0f766e" fill-opacity="0.420" />
<circle cx="304.3" cy="384.9" r="3.2" fill="#0f766e" fill-opacity="0.420" />
<circle cx="302.4" cy="403.0" r="3.2" fill="#0f766e" fill-opacity="0.420" />
<circle cx="289.7" cy="387.7" r="3.2" fill="#0f766e" fill-opacity="0.420" />
<circle cx="296.4" cy="369.7" r="3.2" fill="#0f766e" fill-opacity="0.420" />
<circle cx="295.8" cy="395.0" r="3.2" fill="#0f766e" fill-opacity="0.420" />
<circle cx="308.2" cy="382.3" r="3.2" fill="#0f766e" fill-opacity="0.420" />
<circle cx="303.3" cy="376.0" r="3.2" fill="#0f766e" fill-opacity="0.420" />
<circle cx="292.8" cy="368.3" r="3.2" fill="#0f766e" fill-opacity="0.420" />
<circle cx="285.1" cy="353.0" r="3.2" fill="#0f766e" fill-opacity="0.420" />
<circle cx="256.3" cy="359.7" r="3.2" fill="#0f766e" fill-opacity="0.420" />
<circle cx="264.4" cy="360.3" r="3.2" fill="#0f766e" fill-opacity="0.420" />
<circle cx="244.0" cy="363.2" r="3.2" fill="#0f766e" fill-opacity="0.420" />
<circle cx="225.2" cy="369.8" r="3.2" fill="#0f766e" fill-opacity="0.420" />
<circle cx="222.1" cy="383.0" r="3.2" fill="#0f766e" fill-opacity="0.420" />
<circle cx="332.4" cy="362.3" r="3.2" fill="#0f766e" fill-opacity="0.420" />
<circle cx="360.8" cy="375.2" r="3.2" fill="#0f766e" fill-opacity="0.420" />
<circle cx="354.5" cy="372.2" r="3.2" fill="#0f766e" fill-opacity="0.420" />
<circle cx="316.1" cy="359.9" r="3.2" fill="#0f766e" fill-opacity="0.420" />
<circle cx="306.7" cy="356.8" r="3.2" fill="#0f766e" fill-opacity="0.420" />
<circle cx="309.2" cy="362.6" r="3.2" fill="#0f766e" fill-opacity="0.420" />
<circle cx="265.8" cy="353.9" r="3.2" fill="#0f766e" fill-opacity="0.420" />
<circle cx="282.5" cy="362.9" r="3.2" fill="#0f766e" fill-opacity="0.420" />
<circle cx="318.4" cy="377.7" r="3.2" fill="#0f766e" fill-opacity="0.420" />
<circle cx="276.9" cy="339.8" r="3.2" fill="#0f766e" fill-opacity="0.420" />
<circle cx="281.5" cy="342.2" r="3.2" fill="#0f766e" fill-opacity="0.420" />
<circle cx="234.7" cy="340.0" r="3.2" fill="#0f766e" fill-opacity="0.420" />
<circle cx="239.7" cy="376.4" r="3.2" fill="#0f766e" fill-opacity="0.420" />
<circle cx="271.2" cy="332.1" r="3.2" fill="#0f766e" fill-opacity="0.420" />
<circle cx="269.3" cy="367.6" r="3.2" fill="#0f766e" fill-opacity="0.420" />
<circle cx="283.3" cy="340.5" r="3.2" fill="#0f766e" fill-opacity="0.420" />
<circle cx="344.9" cy="320.2" r="3.2" fill="#0f766e" fill-opacity="0.420" />
<circle cx="398.2" cy="340.5" r="3.2" fill="#0f766e" fill-opacity="0.420" />
<circle cx="416.4" cy="324.6" r="3.2" fill="#0f766e" fill-opacity="0.420" />
<circle cx="431.7" cy="336.1" r="3.2" fill="#0f766e" fill-opacity="0.420" />
<circle cx="200.6" cy="382.0" r="3.2" fill="#0f766e" fill-opacity="0.420" />
<circle cx="195.1" cy="408.1" r="3.2" fill="#0f766e" fill-opacity="0.420" />
<circle cx="195.7" cy="389.3" r="3.2" fill="#0f766e" fill-opacity="0.420" />
<circle cx="200.5" cy="391.3" r="3.2" fill="#0f766e" fill-opacity="0.420" />
<circle cx="200.8" cy="371.5" r="3.2" fill="#0f766e" fill-opacity="0.420" />
<circle cx="202.5" cy="369.7" r="3.2" fill="#0f766e" fill-opacity="0.420" />
<circle cx="219.4" cy="380.5" r="3.2" fill="#0f766e" fill-opacity="0.420" />
<text x="315.0" y="570.0" font-size="12" font-family="Helvetica, Arial, sans-serif" font-weight="normal" text-anchor="middle" fill="#1f2937">Observed weekly mean chlorophyll (mg m^-3)</text>
<text x="56.0" y="330.0" font-size="12" font-family="Helvetica, Arial, sans-serif" fill="#1f2937" text-anchor="middle" transform="rotate(-90 56.0 330.0)">Predicted weekly mean chlorophyll (mg m^-3)</text>
<rect x="610.0" y="80.0" width="550.0" height="500.0" fill="#ffffff" stroke="#d1d5db" stroke-width="1" rx="10" ry="10" />
<text x="628.0" y="104.0" font-size="16" font-family="Helvetica, Arial, sans-serif" font-weight="bold" text-anchor="start" fill="#1f2937">Persistence (last observed value) vs observed</text>
<text x="628.0" y="124.0" font-size="12" font-family="Helvetica, Arial, sans-serif" font-weight="normal" text-anchor="start" fill="#1f2937">R²=-0.348  RMSE=5.180  MAE=3.592</text>
<line x1="668.0" y1="118.0" x2="668.0" y2="536.0" stroke="#e5e7eb" stroke-width="1.0" />
<line x1="668.0" y1="536.0" x2="1142.0" y2="536.0" stroke="#e5e7eb" stroke-width="1.0" />
<text x="668.0" y="556.0" font-size="11" font-family="Helvetica, Arial, sans-serif" font-weight="normal" text-anchor="middle" fill="#1f2937">0.0</text>
<text x="660.0" y="540.0" font-size="11" font-family="Helvetica, Arial, sans-serif" font-weight="normal" text-anchor="end" fill="#1f2937">0.0</text>
<line x1="786.5" y1="118.0" x2="786.5" y2="536.0" stroke="#e5e7eb" stroke-width="1.0" />
<line x1="668.0" y1="431.5" x2="1142.0" y2="431.5" stroke="#e5e7eb" stroke-width="1.0" />
<text x="786.5" y="556.0" font-size="11" font-family="Helvetica, Arial, sans-serif" font-weight="normal" text-anchor="middle" fill="#1f2937">9.4</text>
<text x="660.0" y="435.5" font-size="11" font-family="Helvetica, Arial, sans-serif" font-weight="normal" text-anchor="end" fill="#1f2937">9.4</text>
<line x1="905.0" y1="118.0" x2="905.0" y2="536.0" stroke="#e5e7eb" stroke-width="1.0" />
<line x1="668.0" y1="327.0" x2="1142.0" y2="327.0" stroke="#e5e7eb" stroke-width="1.0" />
<text x="905.0" y="556.0" font-size="11" font-family="Helvetica, Arial, sans-serif" font-weight="normal" text-anchor="middle" fill="#1f2937">18.9</text>
<text x="660.0" y="331.0" font-size="11" font-family="Helvetica, Arial, sans-serif" font-weight="normal" text-anchor="end" fill="#1f2937">18.9</text>
<line x1="1023.5" y1="118.0" x2="1023.5" y2="536.0" stroke="#e5e7eb" stroke-width="1.0" />
<line x1="668.0" y1="222.5" x2="1142.0" y2="222.5" stroke="#e5e7eb" stroke-width="1.0" />
<text x="1023.5" y="556.0" font-size="11" font-family="Helvetica, Arial, sans-serif" font-weight="normal" text-anchor="middle" fill="#1f2937">28.3</text>
<text x="660.0" y="226.5" font-size="11" font-family="Helvetica, Arial, sans-serif" font-weight="normal" text-anchor="end" fill="#1f2937">28.3</text>
<line x1="1142.0" y1="118.0" x2="1142.0" y2="536.0" stroke="#e5e7eb" stroke-width="1.0" />
<line x1="668.0" y1="118.0" x2="1142.0" y2="118.0" stroke="#e5e7eb" stroke-width="1.0" />
<text x="1142.0" y="556.0" font-size="11" font-family="Helvetica, Arial, sans-serif" font-weight="normal" text-anchor="middle" fill="#1f2937">37.8</text>
<text x="660.0" y="122.0" font-size="11" font-family="Helvetica, Arial, sans-serif" font-weight="normal" text-anchor="end" fill="#1f2937">37.8</text>
<line x1="668.0" y1="536.0" x2="1142.0" y2="118.0" stroke="#374151" stroke-width="1.5" stroke-dasharray="5 4" />
<line x1="668.0" y1="489.5" x2="1142.0" y2="237.2" stroke="#b91c1c" stroke-width="2.0" />
<circle cx="774.6" cy="480.7" r="3.2" fill="#0f766e" fill-opacity="0.420" />
<circle cx="752.0" cy="456.8" r="3.2" fill="#0f766e" fill-opacity="0.420" />
<circle cx="723.7" cy="421.1" r="3.2" fill="#0f766e" fill-opacity="0.420" />
<circle cx="737.2" cy="501.3" r="3.2" fill="#0f766e" fill-opacity="0.420" />
<circle cx="730.9" cy="452.9" r="3.2" fill="#0f766e" fill-opacity="0.420" />
<circle cx="744.5" cy="472.3" r="3.2" fill="#0f766e" fill-opacity="0.420" />
<circle cx="793.6" cy="491.0" r="3.2" fill="#0f766e" fill-opacity="0.420" />
<circle cx="791.2" cy="424.6" r="3.2" fill="#0f766e" fill-opacity="0.420" />
<circle cx="755.8" cy="317.7" r="3.2" fill="#0f766e" fill-opacity="0.420" />
<circle cx="764.6" cy="426.5" r="3.2" fill="#0f766e" fill-opacity="0.420" />
<circle cx="776.9" cy="479.2" r="3.2" fill="#0f766e" fill-opacity="0.420" />
<circle cx="781.3" cy="495.3" r="3.2" fill="#0f766e" fill-opacity="0.420" />
<circle cx="772.7" cy="418.3" r="3.2" fill="#0f766e" fill-opacity="0.420" />
<circle cx="776.2" cy="473.4" r="3.2" fill="#0f766e" fill-opacity="0.420" />
<circle cx="760.9" cy="387.8" r="3.2" fill="#0f766e" fill-opacity="0.420" />
<circle cx="751.8" cy="424.9" r="3.2" fill="#0f766e" fill-opacity="0.420" />
<circle cx="754.9" cy="476.0" r="3.2" fill="#0f766e" fill-opacity="0.420" />
<circle cx="754.1" cy="456.3" r="3.2" fill="#0f766e" fill-opacity="0.420" />
<circle cx="750.3" cy="458.0" r="3.2" fill="#0f766e" fill-opacity="0.420" />
<circle cx="752.4" cy="455.0" r="3.2" fill="#0f766e" fill-opacity="0.420" />
<circle cx="758.9" cy="428.2" r="3.2" fill="#0f766e" fill-opacity="0.420" />
<circle cx="780.1" cy="471.2" r="3.2" fill="#0f766e" fill-opacity="0.420" />
<circle cx="783.0" cy="447.6" r="3.2" fill="#0f766e" fill-opacity="0.420" />
<circle cx="811.1" cy="179.3" r="3.2" fill="#0f766e" fill-opacity="0.420" />
<circle cx="790.5" cy="367.5" r="3.2" fill="#0f766e" fill-opacity="0.420" />
<circle cx="779.9" cy="350.8" r="3.2" fill="#0f766e" fill-opacity="0.420" />
<circle cx="768.5" cy="386.9" r="3.2" fill="#0f766e" fill-opacity="0.420" />
<circle cx="768.8" cy="448.6" r="3.2" fill="#0f766e" fill-opacity="0.420" />
<circle cx="769.8" cy="457.6" r="3.2" fill="#0f766e" fill-opacity="0.420" />
<circle cx="775.2" cy="447.6" r="3.2" fill="#0f766e" fill-opacity="0.420" />
<circle cx="786.2" cy="476.1" r="3.2" fill="#0f766e" fill-opacity="0.420" />
<circle cx="775.8" cy="407.1" r="3.2" fill="#0f766e" fill-opacity="0.420" />
<circle cx="767.4" cy="454.0" r="3.2" fill="#0f766e" fill-opacity="0.420" />
<circle cx="762.2" cy="428.7" r="3.2" fill="#0f766e" fill-opacity="0.420" />
<circle cx="759.9" cy="437.4" r="3.2" fill="#0f766e" fill-opacity="0.420" />
<circle cx="749.6" cy="443.8" r="3.2" fill="#0f766e" fill-opacity="0.420" />
<circle cx="757.5" cy="479.6" r="3.2" fill="#0f766e" fill-opacity="0.420" />
<circle cx="754.4" cy="452.4" r="3.2" fill="#0f766e" fill-opacity="0.420" />
<circle cx="752.5" cy="451.5" r="3.2" fill="#0f766e" fill-opacity="0.420" />
<circle cx="751.5" cy="447.8" r="3.2" fill="#0f766e" fill-opacity="0.420" />
<circle cx="751.3" cy="489.1" r="3.2" fill="#0f766e" fill-opacity="0.420" />
<circle cx="771.6" cy="444.8" r="3.2" fill="#0f766e" fill-opacity="0.420" />
<circle cx="784.6" cy="482.4" r="3.2" fill="#0f766e" fill-opacity="0.420" />
<circle cx="787.5" cy="443.3" r="3.2" fill="#0f766e" fill-opacity="0.420" />
<circle cx="807.2" cy="374.2" r="3.2" fill="#0f766e" fill-opacity="0.420" />
<circle cx="796.5" cy="400.8" r="3.2" fill="#0f766e" fill-opacity="0.420" />
<circle cx="791.2" cy="404.0" r="3.2" fill="#0f766e" fill-opacity="0.420" />
<circle cx="786.0" cy="420.8" r="3.2" fill="#0f766e" fill-opacity="0.420" />
<circle cx="791.1" cy="405.7" r="3.2" fill="#0f766e" fill-opacity="0.420" />
<circle cx="825.6" cy="456.0" r="3.2" fill="#0f766e" fill-opacity="0.420" />
<circle cx="803.7" cy="422.6" r="3.2" fill="#0f766e" fill-opacity="0.420" />
<circle cx="816.9" cy="438.9" r="3.2" fill="#0f766e" fill-opacity="0.420" />
<circle cx="804.9" cy="392.3" r="3.2" fill="#0f766e" fill-opacity="0.420" />
<circle cx="779.2" cy="334.1" r="3.2" fill="#0f766e" fill-opacity="0.420" />
<circle cx="785.5" cy="457.2" r="3.2" fill="#0f766e" fill-opacity="0.420" />
<circle cx="808.6" cy="446.7" r="3.2" fill="#0f766e" fill-opacity="0.420" />
<circle cx="806.5" cy="428.5" r="3.2" fill="#0f766e" fill-opacity="0.420" />
<circle cx="793.4" cy="369.6" r="3.2" fill="#0f766e" fill-opacity="0.420" />
<circle cx="799.0" cy="455.4" r="3.2" fill="#0f766e" fill-opacity="0.420" />
<circle cx="804.8" cy="438.9" r="3.2" fill="#0f766e" fill-opacity="0.420" />
<circle cx="817.0" cy="469.3" r="3.2" fill="#0f766e" fill-opacity="0.420" />
<circle cx="814.7" cy="418.0" r="3.2" fill="#0f766e" fill-opacity="0.420" />
<circle cx="778.6" cy="304.5" r="3.2" fill="#0f766e" fill-opacity="0.420" />
<circle cx="780.9" cy="441.5" r="3.2" fill="#0f766e" fill-opacity="0.420" />
<circle cx="784.9" cy="450.6" r="3.2" fill="#0f766e" fill-opacity="0.420" />
<circle cx="778.5" cy="408.4" r="3.2" fill="#0f766e" fill-opacity="0.420" />
<circle cx="777.8" cy="428.2" r="3.2" fill="#0f766e" fill-opacity="0.420" />
<circle cx="788.5" cy="463.8" r="3.2" fill="#0f766e" fill-opacity="0.420" />
<circle cx="782.1" cy="431.1" r="3.2" fill="#0f766e" fill-opacity="0.420" />
<circle cx="777.8" cy="412.7" r="3.2" fill="#0f766e" fill-opacity="0.420" />
<circle cx="782.9" cy="457.0" r="3.2" fill="#0f766e" fill-opacity="0.420" />
<circle cx="765.7" cy="431.3" r="3.2" fill="#0f766e" fill-opacity="0.420" />
<circle cx="742.1" cy="416.5" r="3.2" fill="#0f766e" fill-opacity="0.420" />
<circle cx="738.9" cy="459.3" r="3.2" fill="#0f766e" fill-opacity="0.420" />
<circle cx="733.6" cy="431.8" r="3.2" fill="#0f766e" fill-opacity="0.420" />
<circle cx="744.9" cy="491.7" r="3.2" fill="#0f766e" fill-opacity="0.420" />
<circle cx="751.3" cy="463.2" r="3.2" fill="#0f766e" fill-opacity="0.420" />
<circle cx="781.9" cy="450.3" r="3.2" fill="#0f766e" fill-opacity="0.420" />
<circle cx="780.2" cy="451.7" r="3.2" fill="#0f766e" fill-opacity="0.420" />
<circle cx="779.4" cy="440.8" r="3.2" fill="#0f766e" fill-opacity="0.420" />
<circle cx="781.2" cy="429.0" r="3.2" fill="#0f766e" fill-opacity="0.420" />
<circle cx="758.0" cy="420.5" r="3.2" fill="#0f766e" fill-opacity="0.420" />
<circle cx="746.1" cy="457.7" r="3.2" fill="#0f766e" fill-opacity="0.420" />
<circle cx="852.2" cy="378.8" r="3.2" fill="#0f766e" fill-opacity="0.420" />
<circle cx="870.9" cy="340.3" r="3.2" fill="#0f766e" fill-opacity="0.420" />
<circle cx="900.6" cy="397.1" r="3.2" fill="#0f766e" fill-opacity="0.420" />
<circle cx="896.8" cy="363.5" r="3.2" fill="#0f766e" fill-opacity="0.420" />
<circle cx="929.3" cy="387.4" r="3.2" fill="#0f766e" fill-opacity="0.420" />
<circle cx="934.0" cy="374.8" r="3.2" fill="#0f766e" fill-opacity="0.420" />
<circle cx="951.3" cy="378.1" r="3.2" fill="#0f766e" fill-opacity="0.420" />
<circle cx="912.4" cy="241.7" r="3.2" fill="#0f766e" fill-opacity="0.420" />
<circle cx="889.6" cy="240.0" r="3.2" fill="#0f766e" fill-opacity="0.420" />
<circle cx="743.4" cy="477.9" r="3.2" fill="#0f766e" fill-opacity="0.420" />
<circle cx="750.8" cy="481.4" r="3.2" fill="#0f766e" fill-opacity="0.420" />
<circle cx="749.7" cy="448.1" r="3.2" fill="#0f766e" fill-opacity="0.420" />
<circle cx="756.9" cy="485.0" r="3.2" fill="#0f766e" fill-opacity="0.420" />
<circle cx="773.2" cy="463.4" r="3.2" fill="#0f766e" fill-opacity="0.420" />
<circle cx="776.7" cy="455.6" r="3.2" fill="#0f766e" fill-opacity="0.420" />
<circle cx="736.3" cy="419.6" r="3.2" fill="#0f766e" fill-opacity="0.420" />
<circle cx="741.6" cy="499.0" r="3.2" fill="#0f766e" fill-opacity="0.420" />
<circle cx="738.6" cy="492.7" r="3.2" fill="#0f766e" fill-opacity="0.420" />
<circle cx="737.5" cy="470.1" r="3.2" fill="#0f766e" fill-opacity="0.420" />
<circle cx="721.5" cy="501.9" r="3.2" fill="#0f766e" fill-opacity="0.420" />
<circle cx="741.7" cy="447.5" r="3.2" fill="#0f766e" fill-opacity="0.420" />
<circle cx="747.2" cy="448.9" r="3.2" fill="#0f766e" fill-opacity="0.420" />
<circle cx="752.4" cy="475.9" r="3.2" fill="#0f766e" fill-opacity="0.420" />
<circle cx="747.7" cy="485.4" r="3.2" fill="#0f766e" fill-opacity="0.420" />
<circle cx="745.2" cy="456.9" r="3.2" fill="#0f766e" fill-opacity="0.420" />
<circle cx="759.9" cy="488.1" r="3.2" fill="#0f766e" fill-opacity="0.420" />
<circle cx="747.7" cy="436.2" r="3.2" fill="#0f766e" fill-opacity="0.420" />
<circle cx="758.0" cy="468.6" r="3.2" fill="#0f766e" fill-opacity="0.420" />
<circle cx="737.7" cy="429.7" r="3.2" fill="#0f766e" fill-opacity="0.420" />
<circle cx="741.3" cy="455.1" r="3.2" fill="#0f766e" fill-opacity="0.420" />
<circle cx="745.4" cy="432.3" r="3.2" fill="#0f766e" fill-opacity="0.420" />
<circle cx="739.2" cy="442.3" r="3.2" fill="#0f766e" fill-opacity="0.420" />
<circle cx="773.4" cy="499.3" r="3.2" fill="#0f766e" fill-opacity="0.420" />
<circle cx="755.8" cy="428.0" r="3.2" fill="#0f766e" fill-opacity="0.420" />
<circle cx="745.7" cy="448.5" r="3.2" fill="#0f766e" fill-opacity="0.420" />
<circle cx="764.4" cy="517.0" r="3.2" fill="#0f766e" fill-opacity="0.420" />
<circle cx="738.1" cy="378.5" r="3.2" fill="#0f766e" fill-opacity="0.420" />
<circle cx="732.8" cy="490.2" r="3.2" fill="#0f766e" fill-opacity="0.420" />
<circle cx="743.7" cy="512.9" r="3.2" fill="#0f766e" fill-opacity="0.420" />
<circle cx="735.0" cy="438.7" r="3.2" fill="#0f766e" fill-opacity="0.420" />
<circle cx="797.2" cy="449.4" r="3.2" fill="#0f766e" fill-opacity="0.420" />
<circle cx="796.9" cy="414.9" r="3.2" fill="#0f766e" fill-opacity="0.420" />
<circle cx="785.3" cy="397.8" r="3.2" fill="#0f766e" fill-opacity="0.420" />
<circle cx="781.0" cy="434.0" r="3.2" fill="#0f766e" fill-opacity="0.420" />
<circle cx="789.7" cy="466.8" r="3.2" fill="#0f766e" fill-opacity="0.420" />
<circle cx="760.1" cy="416.3" r="3.2" fill="#0f766e" fill-opacity="0.420" />
<circle cx="789.7" cy="449.1" r="3.2" fill="#0f766e" fill-opacity="0.420" />
<circle cx="788.9" cy="452.7" r="3.2" fill="#0f766e" fill-opacity="0.420" />
<circle cx="818.9" cy="416.9" r="3.2" fill="#0f766e" fill-opacity="0.420" />
<circle cx="846.5" cy="500.2" r="3.2" fill="#0f766e" fill-opacity="0.420" />
<circle cx="786.4" cy="405.1" r="3.2" fill="#0f766e" fill-opacity="0.420" />
<circle cx="758.8" cy="370.4" r="3.2" fill="#0f766e" fill-opacity="0.420" />
<circle cx="769.2" cy="502.1" r="3.2" fill="#0f766e" fill-opacity="0.420" />
<circle cx="835.3" cy="428.2" r="3.2" fill="#0f766e" fill-opacity="0.420" />
<circle cx="807.2" cy="425.7" r="3.2" fill="#0f766e" fill-opacity="0.420" />
<circle cx="857.2" cy="448.2" r="3.2" fill="#0f766e" fill-opacity="0.420" />
<circle cx="873.4" cy="440.6" r="3.2" fill="#0f766e" fill-opacity="0.420" />
<circle cx="911.9" cy="491.0" r="3.2" fill="#0f766e" fill-opacity="0.420" />
<circle cx="840.1" cy="137.0" r="3.2" fill="#0f766e" fill-opacity="0.420" />
<circle cx="871.3" cy="454.0" r="3.2" fill="#0f766e" fill-opacity="0.420" />
<circle cx="870.6" cy="390.5" r="3.2" fill="#0f766e" fill-opacity="0.420" />
<circle cx="848.9" cy="290.3" r="3.2" fill="#0f766e" fill-opacity="0.420" />
<circle cx="831.9" cy="295.4" r="3.2" fill="#0f766e" fill-opacity="0.420" />
<circle cx="874.3" cy="476.2" r="3.2" fill="#0f766e" fill-opacity="0.420" />
<circle cx="872.4" cy="398.3" r="3.2" fill="#0f766e" fill-opacity="0.420" />
<circle cx="859.7" cy="335.9" r="3.2" fill="#0f766e" fill-opacity="0.420" />
<circle cx="866.4" cy="355.3" r="3.2" fill="#0f766e" fill-opacity="0.420" />
<circle cx="865.8" cy="326.7" r="3.2" fill="#0f766e" fill-opacity="0.420" />
<circle cx="878.2" cy="405.1" r="3.2" fill="#0f766e" fill-opacity="0.420" />
<circle cx="873.3" cy="380.7" r="3.2" fill="#0f766e" fill-opacity="0.420" />
<circle cx="862.8" cy="341.2" r="3.2" fill="#0f766e" fill-opacity="0.420" />
<circle cx="855.1" cy="351.8" r="3.2" fill="#0f766e" fill-opacity="0.420" />
<circle cx="826.3" cy="329.0" r="3.2" fill="#0f766e" fill-opacity="0.420" />
<circle cx="834.4" cy="397.9" r="3.2" fill="#0f766e" fill-opacity="0.420" />
<circle cx="814.0" cy="378.2" r="3.2" fill="#0f766e" fill-opacity="0.420" />
<circle cx="795.2" cy="378.9" r="3.2" fill="#0f766e" fill-opacity="0.420" />
<circle cx="792.1" cy="430.6" r="3.2" fill="#0f766e" fill-opacity="0.420" />
<circle cx="902.4" cy="445.2" r="3.2" fill="#0f766e" fill-opacity="0.420" />
<circle cx="930.8" cy="441.8" r="3.2" fill="#0f766e" fill-opacity="0.420" />
<circle cx="924.5" cy="331.6" r="3.2" fill="#0f766e" fill-opacity="0.420" />
<circle cx="886.1" cy="192.1" r="3.2" fill="#0f766e" fill-opacity="0.420" />
<circle cx="876.7" cy="310.4" r="3.2" fill="#0f766e" fill-opacity="0.420" />
<circle cx="879.2" cy="370.7" r="3.2" fill="#0f766e" fill-opacity="0.420" />
<circle cx="835.8" cy="359.3" r="3.2" fill="#0f766e" fill-opacity="0.420" />
<circle cx="852.5" cy="361.5" r="3.2" fill="#0f766e" fill-opacity="0.420" />
<circle cx="888.4" cy="361.8" r="3.2" fill="#0f766e" fill-opacity="0.420" />
<circle cx="846.9" cy="383.6" r="3.2" fill="#0f766e" fill-opacity="0.420" />
<circle cx="851.5" cy="416.6" r="3.2" fill="#0f766e" fill-opacity="0.420" />
<circle cx="804.7" cy="233.3" r="3.2" fill="#0f766e" fill-opacity="0.420" />
<circle cx="809.7" cy="432.7" r="3.2" fill="#0f766e" fill-opacity="0.420" />
<circle cx="841.2" cy="406.7" r="3.2" fill="#0f766e" fill-opacity="0.420" />
<circle cx="839.3" cy="376.4" r="3.2" fill="#0f766e" fill-opacity="0.420" />
<circle cx="853.3" cy="376.0" r="3.2" fill="#0f766e" fill-opacity="0.420" />
<circle cx="914.9" cy="343.0" r="3.2" fill="#0f766e" fill-opacity="0.420" />
<circle cx="968.2" cy="452.1" r="3.2" fill="#0f766e" fill-opacity="0.420" />
<circle cx="986.4" cy="335.4" r="3.2" fill="#0f766e" fill-opacity="0.420" />
<circle cx="1001.7" cy="359.9" r="3.2" fill="#0f766e" fill-opacity="0.420" />
<circle cx="770.6" cy="368.1" r="3.2" fill="#0f766e" fill-opacity="0.420" />
<circle cx="765.1" cy="433.3" r="3.2" fill="#0f766e" fill-opacity="0.420" />
<circle cx="765.7" cy="420.2" r="3.2" fill="#0f766e" fill-opacity="0.420" />
<circle cx="770.5" cy="475.7" r="3.2" fill="#0f766e" fill-opacity="0.420" />
<circle cx="770.8" cy="446.9" r="3.2" fill="#0f766e" fill-opacity="0.420" />
<circle cx="772.5" cy="451.2" r="3.2" fill="#0f766e" fill-opacity="0.420" />
<circle cx="789.4" cy="440.0" r="3.2" fill="#0f766e" fill-opacity="0.420" />
<text x="885.0" y="570.0" font-size="12" font-family="Helvetica, Arial, sans-serif" font-weight="normal" text-anchor="middle" fill="#1f2937">Observed weekly mean chlorophyll (mg m^-3)</text>
<text x="626.0" y="330.0" font-size="12" font-family="Helvetica, Arial, sans-serif" fill="#1f2937" text-anchor="middle" transform="rotate(-90 626.0 330.0)">Predicted weekly mean chlorophyll (mg m^-3)</text>
</svg>